<?xml version="1.0" encoding="UTF-8" ?>

<svg width="86" height="86" xmlns="http://www.w3.org/2000/svg" version="1.1">

<defs>
	<linearGradient id="greyGradient" x1="0" x2="0" y1="0" y2="1">
		<stop stop-color="#000" offset="0%" />
		<stop stop-color="#3a3a3a" offset="100%" />
	</linearGradient>
	<linearGradient id="greyGradientOuter" x1="0" x2="0" y1="0" y2="1">
		<stop stop-color="#3a3a3a" offset="0%" />
		<stop stop-color="#000" offset="100%" />
	</linearGradient>
</defs>

<circle cx="43" cy="43" r="42" fill="url(#greyGradientOuter)" stroke="#3a3a3a" stroke-width="1px" />
<circle cx="43" cy="43" r="36" fill="url(#greyGradient)" />

<rect x="24" y="25" width="4" height="34" fill="#3396ff" />
<circle cx="26" cy="59" r="2" fill="#3396ff" />

<rect x="41" y="27" width="4" height="34" fill="#3396ff" />
<circle cx="43" cy="27" r="2" fill="#3396ff" />

<rect x="58" y="27" width="4" height="32" fill="#3396ff" />
<circle cx="60" cy="27" r="2" fill="#3396ff" />
<circle cx="60" cy="59" r="2" fill="#3396ff" />

<circle cx="20" cy="29" r="4" fill="#3396ff" />
<circle cx="20" cy="29" r="1" fill="#141414" />
<circle cx="32" cy="29" r="4" fill="#3396ff" />
<circle cx="32" cy="29" r="1" fill="#141414" />
<rect x="20" y="25" width="12" height="8" fill="#3396ff" />
<rect x="20" y="28" width="12" height="2" fill="#141414" />

<circle cx="37" cy="57" r="4" fill="#3396ff" />
<circle cx="37" cy="57" r="1" fill="#363636" />
<circle cx="49" cy="57" r="4" fill="#3396ff" />
<circle cx="49" cy="57" r="1" fill="#363636" />
<rect x="37" y="53" width="12" height="8" fill="#3396ff" />
<rect x="37" y="56" width="12" height="2" fill="#363636" />

<circle cx="54" cy="43" r="4" fill="#3396ff" />
<circle cx="54" cy="43" r="1" fill="#252525" />
<circle cx="66" cy="43" r="4" fill="#3396ff" />
<circle cx="66" cy="43" r="1" fill="#252525" />
<rect x="54" y="39" width="12" height="8" fill="#3396ff" />
<rect x="54" y="42" width="12" height="2" fill="#252525" />

</svg>