<?xml version="1.0" encoding="UTF-8" ?>

<svg width="86" height="86" xmlns="http://www.w3.org/2000/svg" version="1.1">

<defs>
	<linearGradient id="greyGradient" x1="0" x2="0" y1="0" y2="1">
		<stop stop-color="#d4d4d4" offset="0%" />
		<stop stop-color="#fff" offset="100%" />
	</linearGradient>
	<linearGradient id="greyGradientOuter" x1="0" x2="0" y1="0" y2="1">
		<stop stop-color="#fff" offset="0%" />
		<stop stop-color="#d4d4d4" offset="100%" />
	</linearGradient>
</defs>

<circle cx="43" cy="43" r="42" fill="url(#greyGradientOuter)" stroke="#d4d4d4" stroke-width="1px" />
<circle cx="43" cy="43" r="36" fill="url(#greyGradient)" />

<rect x="24" y="25" width="4" height="34" fill="#218dff" />
<circle cx="26" cy="59" r="2" fill="#218dff" />

<rect x="41" y="27" width="4" height="34" fill="#218dff" />
<circle cx="43" cy="27" r="2" fill="#218dff" />

<rect x="58" y="27" width="4" height="32" fill="#218dff" />
<circle cx="60" cy="27" r="2" fill="#218dff" />
<circle cx="60" cy="59" r="2" fill="#218dff" />

<circle cx="20" cy="29" r="4" fill="#218dff" />
<circle cx="20" cy="29" r="1" fill="#e0e0e0" />
<circle cx="32" cy="29" r="4" fill="#218dff" />
<circle cx="32" cy="29" r="1" fill="#e0e0e0" />
<rect x="20" y="25" width="12" height="8" fill="#218dff" />
<rect x="20" y="28" width="12" height="2" fill="#e0e0e0" />

<circle cx="37" cy="57" r="4" fill="#218dff" />
<circle cx="37" cy="57" r="1" fill="#f6f6f6" />
<circle cx="49" cy="57" r="4" fill="#218dff" />
<circle cx="49" cy="57" r="1" fill="#f6f6f6" />
<rect x="37" y="53" width="12" height="8" fill="#218dff" />
<rect x="37" y="56" width="12" height="2" fill="#f6f6f6" />

<circle cx="54" cy="43" r="4" fill="#218dff" />
<circle cx="54" cy="43" r="1" fill="#ebebeb" />
<circle cx="66" cy="43" r="4" fill="#218dff" />
<circle cx="66" cy="43" r="1" fill="#ebebeb" />
<rect x="54" y="39" width="12" height="8" fill="#218dff" />
<rect x="54" y="42" width="12" height="2" fill="#ebebeb" />

</svg>